<?xml version="1.0" encoding="utf-8"?>
<!-- Generator: Adobe Illustrator 19.0.0, SVG Export Plug-In . SVG Version: 6.00 Build 0)  -->
<svg version="1.1" id="Layer_1" xmlns="http://www.w3.org/2000/svg" xmlns:xlink="http://www.w3.org/1999/xlink" x="0px" y="0px"
	 viewBox="0 0 500 120" style="enable-background:new 0 0 500 120;" xml:space="preserve">
<style type="text/css">
	.st0{fill:#010101;}
</style>
<g id="XMLID_2_">
	<g id="XMLID_11_">
		<path id="XMLID_13_" class="st0" d="M124.7,59.1l33.6-42.3h-10.2l-28.5,35.8L91.1,16.9H80.8l67.8,85.2h10.3L124.7,59.1z
			 M100.5,76.9l-20,25.1h10.2l14.8-18.7L100.5,76.9z M129.6,16.9l-14.7,18.5l5.1,6.4l19.9-25H129.6z"/>
		<polygon id="XMLID_12_" class="st0" points="139.8,102 129.6,102 100.7,65.8 71.9,102 61.7,102 95.6,59.3 61.8,16.9 72.1,16.9 		
			"/>
	</g>
	<g id="XMLID_3_">
		<g id="XMLID_4_">
			<path id="XMLID_9_" class="st0" d="M265.4,21.6c-1.1,0.1-2.7,0.3-4.8,0.7c-2.1,0.3-4,1.1-5.6,2.3c-1.5,1.1-2.5,2.9-3.1,5.5
				c-0.6,2.6-0.9,6.5-0.9,11.5v60.7h-10.7l-52.9-65.7v39.9c0,5,0.3,8.7,1,11.3c0.7,2.6,1.7,4.5,3.2,5.7c1.1,0.9,2.8,1.7,5.2,2.3
				c2.4,0.7,4.2,1.1,5.6,1.4v4.7h-36.5v-4.7c1.6-0.1,3.3-0.4,5.4-0.9c2-0.5,3.7-1.2,5.1-2.1c1.6-1.2,2.6-2.9,3.2-5.2
				c0.6-2.3,0.9-6.3,0.9-11.8V37c0-2-0.3-3.9-0.9-5.7c-0.6-1.8-1.6-3.3-2.9-4.6c-1.4-1.4-3-2.4-4.8-3.2c-1.8-0.8-3.9-1.4-6.2-1.8
				v-4.8h32l46.5,57.5V42.3c0-5.1-0.3-8.9-1-11.4c-0.7-2.5-1.8-4.3-3.2-5.5c-1.2-0.9-2.9-1.7-5.2-2.4c-2.3-0.7-4.1-1.1-5.5-1.3v-4.7
				h36.5V21.6z"/>
			<path id="XMLID_7_" class="st0" d="M346.1,38.6h-4.6c-1.2-3.2-3.2-6.5-6-9.8c-2.8-3.3-5.7-5.3-8.4-5.8c-1.2-0.3-2.9-0.4-5-0.5
				c-2.1-0.1-3.9-0.1-5.3-0.1h-12.3v32.8h8.7c2.2,0,4.2-0.3,6-0.8c1.8-0.5,3.4-1.5,4.9-3c0.9-0.9,1.8-2.5,2.8-4.9
				c0.9-2.3,1.5-4.3,1.8-6h4.6v35.5h-4.6c-0.2-1.7-0.8-3.8-1.8-6.3c-1-2.5-1.9-4.3-2.8-5.2c-1.3-1.4-2.9-2.4-4.7-3
				c-1.8-0.5-3.9-0.8-6.2-0.8h-8.7v24.5c0,2.6,0.2,4.6,0.6,6.1c0.4,1.5,1.1,2.6,2.1,3.4c1,0.8,2.4,1.3,4.1,1.5
				c1.7,0.2,4.1,0.4,7.1,0.4c1.4,0,3.1,0,5-0.1c2,0,3.7-0.2,5.2-0.4c1.7-0.2,3.2-0.5,4.7-0.9c1.5-0.4,2.5-1,3.3-1.7
				c1.9-2,4.1-4.9,6.5-9c2.4-4,4-7,4.7-9h4.4l-1.6,26.5h-79.7v-4.7c1.1-0.1,2.6-0.2,4.6-0.5c1.9-0.2,3.3-0.5,4.1-0.8
				c1.5-0.6,2.5-1.4,3.1-2.4c0.5-1,0.8-2.2,0.8-3.7v-60c0-1.4-0.2-2.6-0.7-3.6c-0.4-0.9-1.5-1.8-3.2-2.5c-1-0.5-2.5-0.9-4.4-1.3
				c-1.9-0.4-3.3-0.7-4.3-0.8v-4.7h75.3V38.6z"/>
			<path id="XMLID_5_" class="st0" d="M438.2,41.3h-4.7c-1.2-3.6-3.2-7.5-5.9-11.7c-2.7-4.2-5.2-6.4-7.6-6.7
				c-1.3-0.2-2.8-0.3-4.7-0.4c-1.9-0.1-3.5-0.2-4.8-0.2h-2.8v66.7c0,1.4,0.3,2.7,0.8,3.8c0.5,1.1,1.5,2,3.1,2.6
				c0.9,0.4,2.3,0.7,4.3,1.1c1.9,0.4,3.6,0.7,4.9,0.8v4.7h-47.4v-4.7c1.2-0.1,2.8-0.3,4.9-0.5c2.1-0.2,3.5-0.5,4.3-0.8
				c1.6-0.6,2.6-1.5,3.1-2.6s0.8-2.4,0.8-3.8V22.3h-2.8c-1.4,0-3,0.1-4.8,0.2c-1.9,0.1-3.4,0.3-4.7,0.4c-2.3,0.3-4.8,2.6-7.6,6.7
				c-2.7,4.2-4.7,8-5.9,11.7h-4.7V16.9h82.4V41.3z"/>
		</g>
	</g>
</g>
</svg>
